<mxfile host="app.diagrams.net" modified="2020-09-24T01:58:17.498Z" agent="5.0 (Windows NT 10.0; Win64; x64) AppleWebKit/537.36 (KHTML, like Gecko) Chrome/85.0.4183.121 Safari/537.36" etag="_5IKxcINoWGp0HyRDEN0" version="13.7.4" type="github">
  <diagram id="SzOXA1mdEVAImGtecw2w" name="PÃ¡gina-1">
    <mxGraphModel dx="1362" dy="803" grid="1" gridSize="10" guides="1" tooltips="1" connect="1" arrows="1" fold="1" page="1" pageScale="1" pageWidth="827" pageHeight="1169" math="0" shadow="0">
      <root>
        <mxCell id="0" />
        <mxCell id="1" parent="0" />
        <mxCell id="Yt0shqM01jF9PgFXX6_v-1" value="" style="strokeWidth=2;html=1;shape=mxgraph.flowchart.start_2;whiteSpace=wrap;" vertex="1" parent="1">
          <mxGeometry x="310" y="30" width="110" height="110" as="geometry" />
        </mxCell>
        <mxCell id="Yt0shqM01jF9PgFXX6_v-2" value="e_resistor_r1,e_resistor_r2,e_tensao_e1,&lt;br&gt;s_tensao_r1,s_tensao_r2,s_corrente_r1,&lt;br&gt;" style="shape=internalStorage;whiteSpace=wrap;html=1;dx=15;dy=15;rounded=1;arcSize=8;strokeWidth=2;" vertex="1" parent="1">
          <mxGeometry x="130" y="140" width="480" height="120" as="geometry" />
        </mxCell>
        <mxCell id="Yt0shqM01jF9PgFXX6_v-3" value="e_tensao_e1" style="html=1;strokeWidth=2;shape=manualInput;whiteSpace=wrap;rounded=1;size=26;arcSize=11;" vertex="1" parent="1">
          <mxGeometry x="305" y="270" width="100" height="60" as="geometry" />
        </mxCell>
        <mxCell id="Yt0shqM01jF9PgFXX6_v-4" value="e_tensao_e" style="html=1;strokeWidth=2;shape=manualInput;whiteSpace=wrap;rounded=1;size=26;arcSize=11;" vertex="1" parent="1">
          <mxGeometry x="305" y="330" width="100" height="60" as="geometry" />
        </mxCell>
        <mxCell id="Yt0shqM01jF9PgFXX6_v-6" value="" style="html=1;strokeWidth=2;shape=manualInput;whiteSpace=wrap;rounded=1;size=26;arcSize=11;" vertex="1" parent="1">
          <mxGeometry x="310" y="400" width="100" height="60" as="geometry" />
        </mxCell>
        <mxCell id="Yt0shqM01jF9PgFXX6_v-7" value="" style="rounded=1;whiteSpace=wrap;html=1;absoluteArcSize=1;arcSize=14;strokeWidth=2;" vertex="1" parent="1">
          <mxGeometry x="180" y="485" width="330" height="45" as="geometry" />
        </mxCell>
        <mxCell id="Yt0shqM01jF9PgFXX6_v-10" value="" style="rounded=1;whiteSpace=wrap;html=1;absoluteArcSize=1;arcSize=14;strokeWidth=2;" vertex="1" parent="1">
          <mxGeometry x="170" y="570" width="330" height="45" as="geometry" />
        </mxCell>
        <mxCell id="Yt0shqM01jF9PgFXX6_v-47" style="edgeStyle=orthogonalEdgeStyle;rounded=0;orthogonalLoop=1;jettySize=auto;html=1;exitX=0.5;exitY=1;exitDx=0;exitDy=0;" edge="1" parent="1" source="Yt0shqM01jF9PgFXX6_v-10" target="Yt0shqM01jF9PgFXX6_v-10">
          <mxGeometry relative="1" as="geometry" />
        </mxCell>
        <mxCell id="Yt0shqM01jF9PgFXX6_v-11" value="" style="shape=table;html=1;whiteSpace=wrap;startSize=0;container=1;collapsible=0;childLayout=tableLayout;" vertex="1" parent="1">
          <mxGeometry x="827" y="110" width="360" height="210" as="geometry" />
        </mxCell>
        <mxCell id="Yt0shqM01jF9PgFXX6_v-19" value="" style="shape=partialRectangle;html=1;whiteSpace=wrap;collapsible=0;dropTarget=0;pointerEvents=0;fillColor=none;top=0;left=0;bottom=0;right=0;points=[[0,0.5],[1,0.5]];portConstraint=eastwest;" vertex="1" parent="Yt0shqM01jF9PgFXX6_v-11">
          <mxGeometry width="360" height="40" as="geometry" />
        </mxCell>
        <mxCell id="Yt0shqM01jF9PgFXX6_v-20" value="" style="shape=partialRectangle;html=1;whiteSpace=wrap;connectable=0;overflow=hidden;fillColor=none;top=0;left=0;bottom=0;right=0;" vertex="1" parent="Yt0shqM01jF9PgFXX6_v-19">
          <mxGeometry width="60" height="40" as="geometry" />
        </mxCell>
        <mxCell id="Yt0shqM01jF9PgFXX6_v-21" value="" style="shape=partialRectangle;html=1;whiteSpace=wrap;connectable=0;overflow=hidden;fillColor=none;top=0;left=0;bottom=0;right=0;" vertex="1" parent="Yt0shqM01jF9PgFXX6_v-19">
          <mxGeometry x="60" width="60" height="40" as="geometry" />
        </mxCell>
        <mxCell id="Yt0shqM01jF9PgFXX6_v-22" value="" style="shape=partialRectangle;html=1;whiteSpace=wrap;connectable=0;overflow=hidden;fillColor=none;top=0;left=0;bottom=0;right=0;" vertex="1" parent="Yt0shqM01jF9PgFXX6_v-19">
          <mxGeometry x="120" width="60" height="40" as="geometry" />
        </mxCell>
        <mxCell id="Yt0shqM01jF9PgFXX6_v-23" value="" style="shape=partialRectangle;html=1;whiteSpace=wrap;connectable=0;overflow=hidden;fillColor=none;top=0;left=0;bottom=0;right=0;" vertex="1" parent="Yt0shqM01jF9PgFXX6_v-19">
          <mxGeometry x="180" width="60" height="40" as="geometry" />
        </mxCell>
        <mxCell id="Yt0shqM01jF9PgFXX6_v-24" value="" style="shape=partialRectangle;html=1;whiteSpace=wrap;connectable=0;overflow=hidden;fillColor=none;top=0;left=0;bottom=0;right=0;" vertex="1" parent="Yt0shqM01jF9PgFXX6_v-19">
          <mxGeometry x="240" width="60" height="40" as="geometry" />
        </mxCell>
        <mxCell id="Yt0shqM01jF9PgFXX6_v-25" value="" style="shape=partialRectangle;html=1;whiteSpace=wrap;connectable=0;overflow=hidden;fillColor=none;top=0;left=0;bottom=0;right=0;" vertex="1" parent="Yt0shqM01jF9PgFXX6_v-19">
          <mxGeometry x="300" width="60" height="40" as="geometry" />
        </mxCell>
        <mxCell id="Yt0shqM01jF9PgFXX6_v-12" value="" style="shape=partialRectangle;html=1;whiteSpace=wrap;collapsible=0;dropTarget=0;pointerEvents=0;fillColor=none;top=0;left=0;bottom=0;right=0;points=[[0,0.5],[1,0.5]];portConstraint=eastwest;" vertex="1" parent="Yt0shqM01jF9PgFXX6_v-11">
          <mxGeometry y="40" width="360" height="40" as="geometry" />
        </mxCell>
        <mxCell id="Yt0shqM01jF9PgFXX6_v-13" value="" style="shape=partialRectangle;html=1;whiteSpace=wrap;connectable=0;overflow=hidden;fillColor=none;top=0;left=0;bottom=0;right=0;" vertex="1" parent="Yt0shqM01jF9PgFXX6_v-12">
          <mxGeometry width="60" height="40" as="geometry" />
        </mxCell>
        <mxCell id="Yt0shqM01jF9PgFXX6_v-14" value="" style="shape=partialRectangle;html=1;whiteSpace=wrap;connectable=0;overflow=hidden;fillColor=none;top=0;left=0;bottom=0;right=0;" vertex="1" parent="Yt0shqM01jF9PgFXX6_v-12">
          <mxGeometry x="60" width="60" height="40" as="geometry" />
        </mxCell>
        <mxCell id="Yt0shqM01jF9PgFXX6_v-15" value="" style="shape=partialRectangle;html=1;whiteSpace=wrap;connectable=0;overflow=hidden;fillColor=none;top=0;left=0;bottom=0;right=0;" vertex="1" parent="Yt0shqM01jF9PgFXX6_v-12">
          <mxGeometry x="120" width="60" height="40" as="geometry" />
        </mxCell>
        <mxCell id="Yt0shqM01jF9PgFXX6_v-16" value="" style="shape=partialRectangle;html=1;whiteSpace=wrap;connectable=0;overflow=hidden;fillColor=none;top=0;left=0;bottom=0;right=0;" vertex="1" parent="Yt0shqM01jF9PgFXX6_v-12">
          <mxGeometry x="180" width="60" height="40" as="geometry" />
        </mxCell>
        <mxCell id="Yt0shqM01jF9PgFXX6_v-17" value="" style="shape=partialRectangle;html=1;whiteSpace=wrap;connectable=0;overflow=hidden;fillColor=none;top=0;left=0;bottom=0;right=0;" vertex="1" parent="Yt0shqM01jF9PgFXX6_v-12">
          <mxGeometry x="240" width="60" height="40" as="geometry" />
        </mxCell>
        <mxCell id="Yt0shqM01jF9PgFXX6_v-18" value="" style="shape=partialRectangle;html=1;whiteSpace=wrap;connectable=0;overflow=hidden;fillColor=none;top=0;left=0;bottom=0;right=0;" vertex="1" parent="Yt0shqM01jF9PgFXX6_v-12">
          <mxGeometry x="300" width="60" height="40" as="geometry" />
        </mxCell>
        <mxCell id="Yt0shqM01jF9PgFXX6_v-33" value="" style="shape=partialRectangle;html=1;whiteSpace=wrap;collapsible=0;dropTarget=0;pointerEvents=0;fillColor=none;top=0;left=0;bottom=0;right=0;points=[[0,0.5],[1,0.5]];portConstraint=eastwest;" vertex="1" parent="Yt0shqM01jF9PgFXX6_v-11">
          <mxGeometry y="80" width="360" height="50" as="geometry" />
        </mxCell>
        <mxCell id="Yt0shqM01jF9PgFXX6_v-34" value="" style="shape=partialRectangle;html=1;whiteSpace=wrap;connectable=0;overflow=hidden;fillColor=none;top=0;left=0;bottom=0;right=0;" vertex="1" parent="Yt0shqM01jF9PgFXX6_v-33">
          <mxGeometry width="60" height="50" as="geometry" />
        </mxCell>
        <mxCell id="Yt0shqM01jF9PgFXX6_v-35" value="" style="shape=partialRectangle;html=1;whiteSpace=wrap;connectable=0;overflow=hidden;fillColor=none;top=0;left=0;bottom=0;right=0;" vertex="1" parent="Yt0shqM01jF9PgFXX6_v-33">
          <mxGeometry x="60" width="60" height="50" as="geometry" />
        </mxCell>
        <mxCell id="Yt0shqM01jF9PgFXX6_v-36" value="" style="shape=partialRectangle;html=1;whiteSpace=wrap;connectable=0;overflow=hidden;fillColor=none;top=0;left=0;bottom=0;right=0;" vertex="1" parent="Yt0shqM01jF9PgFXX6_v-33">
          <mxGeometry x="120" width="60" height="50" as="geometry" />
        </mxCell>
        <mxCell id="Yt0shqM01jF9PgFXX6_v-37" value="" style="shape=partialRectangle;html=1;whiteSpace=wrap;connectable=0;overflow=hidden;fillColor=none;top=0;left=0;bottom=0;right=0;" vertex="1" parent="Yt0shqM01jF9PgFXX6_v-33">
          <mxGeometry x="180" width="60" height="50" as="geometry" />
        </mxCell>
        <mxCell id="Yt0shqM01jF9PgFXX6_v-38" value="" style="shape=partialRectangle;html=1;whiteSpace=wrap;connectable=0;overflow=hidden;fillColor=none;top=0;left=0;bottom=0;right=0;" vertex="1" parent="Yt0shqM01jF9PgFXX6_v-33">
          <mxGeometry x="240" width="60" height="50" as="geometry" />
        </mxCell>
        <mxCell id="Yt0shqM01jF9PgFXX6_v-39" value="" style="shape=partialRectangle;html=1;whiteSpace=wrap;connectable=0;overflow=hidden;fillColor=none;top=0;left=0;bottom=0;right=0;" vertex="1" parent="Yt0shqM01jF9PgFXX6_v-33">
          <mxGeometry x="300" width="60" height="50" as="geometry" />
        </mxCell>
        <mxCell id="Yt0shqM01jF9PgFXX6_v-40" value="" style="shape=partialRectangle;html=1;whiteSpace=wrap;collapsible=0;dropTarget=0;pointerEvents=0;fillColor=none;top=0;left=0;bottom=0;right=0;points=[[0,0.5],[1,0.5]];portConstraint=eastwest;" vertex="1" parent="Yt0shqM01jF9PgFXX6_v-11">
          <mxGeometry y="130" width="360" height="40" as="geometry" />
        </mxCell>
        <mxCell id="Yt0shqM01jF9PgFXX6_v-41" value="" style="shape=partialRectangle;html=1;whiteSpace=wrap;connectable=0;overflow=hidden;fillColor=none;top=0;left=0;bottom=0;right=0;" vertex="1" parent="Yt0shqM01jF9PgFXX6_v-40">
          <mxGeometry width="60" height="40" as="geometry" />
        </mxCell>
        <mxCell id="Yt0shqM01jF9PgFXX6_v-42" value="" style="shape=partialRectangle;html=1;whiteSpace=wrap;connectable=0;overflow=hidden;fillColor=none;top=0;left=0;bottom=0;right=0;" vertex="1" parent="Yt0shqM01jF9PgFXX6_v-40">
          <mxGeometry x="60" width="60" height="40" as="geometry" />
        </mxCell>
        <mxCell id="Yt0shqM01jF9PgFXX6_v-43" value="" style="shape=partialRectangle;html=1;whiteSpace=wrap;connectable=0;overflow=hidden;fillColor=none;top=0;left=0;bottom=0;right=0;" vertex="1" parent="Yt0shqM01jF9PgFXX6_v-40">
          <mxGeometry x="120" width="60" height="40" as="geometry" />
        </mxCell>
        <mxCell id="Yt0shqM01jF9PgFXX6_v-44" value="" style="shape=partialRectangle;html=1;whiteSpace=wrap;connectable=0;overflow=hidden;fillColor=none;top=0;left=0;bottom=0;right=0;" vertex="1" parent="Yt0shqM01jF9PgFXX6_v-40">
          <mxGeometry x="180" width="60" height="40" as="geometry" />
        </mxCell>
        <mxCell id="Yt0shqM01jF9PgFXX6_v-45" value="" style="shape=partialRectangle;html=1;whiteSpace=wrap;connectable=0;overflow=hidden;fillColor=none;top=0;left=0;bottom=0;right=0;" vertex="1" parent="Yt0shqM01jF9PgFXX6_v-40">
          <mxGeometry x="240" width="60" height="40" as="geometry" />
        </mxCell>
        <mxCell id="Yt0shqM01jF9PgFXX6_v-46" value="" style="shape=partialRectangle;html=1;whiteSpace=wrap;connectable=0;overflow=hidden;fillColor=none;top=0;left=0;bottom=0;right=0;" vertex="1" parent="Yt0shqM01jF9PgFXX6_v-40">
          <mxGeometry x="300" width="60" height="40" as="geometry" />
        </mxCell>
        <mxCell id="Yt0shqM01jF9PgFXX6_v-26" value="" style="shape=partialRectangle;html=1;whiteSpace=wrap;collapsible=0;dropTarget=0;pointerEvents=0;fillColor=none;top=0;left=0;bottom=0;right=0;points=[[0,0.5],[1,0.5]];portConstraint=eastwest;" vertex="1" parent="Yt0shqM01jF9PgFXX6_v-11">
          <mxGeometry y="170" width="360" height="40" as="geometry" />
        </mxCell>
        <mxCell id="Yt0shqM01jF9PgFXX6_v-27" value="" style="shape=partialRectangle;html=1;whiteSpace=wrap;connectable=0;overflow=hidden;fillColor=none;top=0;left=0;bottom=0;right=0;" vertex="1" parent="Yt0shqM01jF9PgFXX6_v-26">
          <mxGeometry width="60" height="40" as="geometry" />
        </mxCell>
        <mxCell id="Yt0shqM01jF9PgFXX6_v-28" value="" style="shape=partialRectangle;html=1;whiteSpace=wrap;connectable=0;overflow=hidden;fillColor=none;top=0;left=0;bottom=0;right=0;" vertex="1" parent="Yt0shqM01jF9PgFXX6_v-26">
          <mxGeometry x="60" width="60" height="40" as="geometry" />
        </mxCell>
        <mxCell id="Yt0shqM01jF9PgFXX6_v-29" value="" style="shape=partialRectangle;html=1;whiteSpace=wrap;connectable=0;overflow=hidden;fillColor=none;top=0;left=0;bottom=0;right=0;" vertex="1" parent="Yt0shqM01jF9PgFXX6_v-26">
          <mxGeometry x="120" width="60" height="40" as="geometry" />
        </mxCell>
        <mxCell id="Yt0shqM01jF9PgFXX6_v-30" value="" style="shape=partialRectangle;html=1;whiteSpace=wrap;connectable=0;overflow=hidden;fillColor=none;top=0;left=0;bottom=0;right=0;" vertex="1" parent="Yt0shqM01jF9PgFXX6_v-26">
          <mxGeometry x="180" width="60" height="40" as="geometry" />
        </mxCell>
        <mxCell id="Yt0shqM01jF9PgFXX6_v-31" value="" style="shape=partialRectangle;html=1;whiteSpace=wrap;connectable=0;overflow=hidden;fillColor=none;top=0;left=0;bottom=0;right=0;" vertex="1" parent="Yt0shqM01jF9PgFXX6_v-26">
          <mxGeometry x="240" width="60" height="40" as="geometry" />
        </mxCell>
        <mxCell id="Yt0shqM01jF9PgFXX6_v-32" value="" style="shape=partialRectangle;html=1;whiteSpace=wrap;connectable=0;overflow=hidden;fillColor=none;top=0;left=0;bottom=0;right=0;" vertex="1" parent="Yt0shqM01jF9PgFXX6_v-26">
          <mxGeometry x="300" width="60" height="40" as="geometry" />
        </mxCell>
      </root>
    </mxGraphModel>
  </diagram>
</mxfile>
